# Object Export From Tinkercad Server 2015

mtllib obj.mtl

o obj_0
v 27.5 		21.503 		39.003
v 27.5 		21.503 		0
v 27.5 		27.5 		0
v 27.5 		-21.503 		0
v 27.5 		-21.503 		39.003
v 27.5 		-27.5 		0
v 27.5 		-27.5 		45
v 27.5 		27.5 		45
v -27.5 		21.503 		0
v -27.5 		21.503 		39.003
v -27.5 		27.5 		0
v -27.5 		-21.503 		39.003
v -27.5 		-21.503 		0
v -27.5 		-27.5 		0
v -27.5 		27.5 		45
v -27.5 		-27.5 		45
v -21.503 		27.5 		0
v -21.503 		21.503 		0
v 21.503 		21.503 		0
v 21.503 		21.503 		39.003
v 21.503 		27.5 		39.003
v 21.503 		27.5 		0
v -21.503 		-21.503 		0
v -21.503 		-27.5 		0
v 21.503 		-27.5 		39.003
v 21.503 		-21.503 		39.003
v 21.503 		-21.503 		0
v 21.503 		-27.5 		0
v -21.503 		-27.5 		39.003
v -21.503 		27.5 		39.003
v -21.503 		-21.503 		39.003
v -21.503 		21.503 		39.003
# 32 vertices

g group_0_15277357

usemtl color_15277357
s 0

f 3 	1 	2
f 4 	5 	6
f 7 	6 	5
f 7 	5 	1
f 3 	8 	1
f 7 	1 	8
f 9 	10 	11
f 14 	12 	13
f 15 	11 	10
f 15 	10 	12
f 14 	16 	12
f 15 	12 	16
f 17 	18 	9
f 17 	9 	11
f 19 	20 	21
f 19 	21 	22
f 13 	23 	24
f 13 	24 	14
f 25 	26 	27
f 25 	27 	28
f 2 	19 	22
f 2 	22 	3
f 7 	15 	16
f 1 	20 	19
f 1 	19 	2
f 8 	15 	7
f 26 	5 	4
f 26 	4 	27
f 6 	28 	27
f 6 	27 	4
f 20 	1 	5
f 20 	5 	26
f 7 	29 	25
f 29 	14 	24
f 16 	14 	29
f 16 	29 	7
f 6 	25 	28
f 6 	7 	25
f 15 	21 	30
f 11 	30 	17
f 11 	15 	30
f 21 	3 	22
f 8 	3 	21
f 8 	21 	15
f 29 	31 	26
f 25 	29 	26
f 20 	26 	31
f 31 	32 	20
f 21 	20 	32
f 21 	32 	30
f 30 	32 	18
f 30 	18 	17
f 23 	31 	29
f 23 	29 	24
f 32 	10 	9
f 32 	9 	18
f 12 	31 	23
f 12 	23 	13
f 31 	12 	10
f 31 	10 	32
# 60 faces

 #end of obj_0

