# Object Export From Tinkercad Server 2015

mtllib obj.mtl

o obj_0
v 8 		6.5 		0.012
v 7 		6.5 		0.012
v 7 		-4 		0.012
v 8 		-4 		0.012
v 8 		-5 		0
v -11 		-5 		0
v -11 		8 		0
v 8 		8 		0
v 7 		-5 		0.012
v -10 		-5 		0.012
v -10 		8 		0.012
v 7 		8 		0.012
v 8 		-5 		21
v 8 		-5 		20.991
v 8 		8 		20.991
v 8 		8 		21
v 8 		6.5 		10.506
v 8 		-4 		10.506
v 8 		-4 		10.497
v 8 		6.5 		10.497
v 8 		6.5 		20.988
v 8 		-5 		20.988
v 8 		-4 		20.988
v 8 		8 		20.988
v -11 		8 		21
v -11 		8 		20.991
v -11 		-5 		20.991
v -11 		-5 		21
v -11 		-4 		10.506
v -11 		7 		10.506
v -11 		7 		10.497
v -11 		-4 		10.497
v -11 		-4 		20.988
v -11 		-4 		0.012
v -11 		-5 		20.988
v -11 		8 		20.988
v -11 		7 		0.012
v -11 		7 		20.988
v 7 		8 		10.506
v -10 		8 		10.506
v -10 		7 		10.506
v -10 		-4 		10.506
v -10 		-5 		10.506
v 7 		-5 		10.506
v 7 		-4 		10.506
v 7 		6.5 		10.506
v -10 		-5 		10.497
v 7 		-5 		10.497
v 7 		8 		10.497
v -10 		8 		10.497
v 7 		6.5 		10.497
v 7 		-4 		10.497
v -10 		-4 		10.497
v -10 		7 		10.497
v -10 		-4 		20.988
v -10 		-5 		20.988
v -10 		8 		20.988
v -10 		7 		20.988
v -10 		-4 		0.012
v -10 		7 		0.012
v 7 		6.5 		20.988
v 7 		-4 		20.988
v 7 		-5 		20.988
v 7 		8 		20.988
# 64 vertices

g group_0_15277357

usemtl color_15277357
s 0

f 1 	2 	3
f 1 	3 	4
f 5 	6 	7
f 5 	7 	8
f 6 	5 	9
f 6 	9 	10
f 8 	7 	11
f 8 	11 	12
f 13 	14 	15
f 13 	15 	16
f 17 	18 	19
f 17 	19 	20
f 20 	24 	17
f 4 	19 	5
f 22 	5 	19
f 22 	19 	18
f 22 	18 	23
f 8 	24 	20
f 21 	17 	24
f 20 	1 	8
f 5 	8 	1
f 5 	1 	4
f 25 	26 	27
f 25 	27 	28
f 29 	30 	31
f 29 	31 	32
f 6 	35 	32
f 34 	6 	32
f 29 	32 	35
f 33 	29 	35
f 37 	31 	7
f 36 	7 	31
f 36 	31 	30
f 36 	30 	38
f 6 	34 	7
f 7 	34 	37
f 39 	40 	41
f 45 	46 	42
f 43 	44 	42
f 44 	45 	42
f 41 	42 	46
f 39 	41 	46
f 43 	47 	48
f 43 	48 	44
f 39 	49 	50
f 39 	50 	40
f 47 	53 	52
f 48 	47 	52
f 51 	52 	53
f 53 	54 	51
f 49 	51 	54
f 49 	54 	50
f 13 	28 	27
f 55 	33 	35
f 55 	35 	56
f 57 	36 	38
f 57 	38 	58
f 10 	47 	6
f 35 	6 	47
f 35 	47 	43
f 35 	43 	56
f 41 	30 	29
f 41 	29 	42
f 31 	54 	53
f 31 	53 	32
f 55 	42 	29
f 55 	29 	33
f 59 	34 	53
f 32 	53 	34
f 38 	30 	41
f 38 	41 	58
f 54 	37 	60
f 13 	27 	14
f 27 	15 	14
f 23 	62 	63
f 23 	63 	22
f 61 	21 	64
f 24 	64 	21
f 5 	22 	48
f 9 	5 	48
f 44 	48 	22
f 63 	44 	22
f 17 	46 	45
f 17 	45 	18
f 51 	20 	19
f 51 	19 	52
f 21 	61 	46
f 21 	46 	17
f 20 	2 	1
f 20 	51 	2
f 23 	18 	45
f 23 	45 	62
f 52 	4 	3
f 4 	52 	19
f 12 	49 	8
f 24 	8 	49
f 24 	49 	39
f 24 	39 	64
f 12 	11 	60
f 3 	2 	59
f 10 	9 	59
f 9 	3 	59
f 60 	59 	2
f 12 	60 	2
f 60 	37 	34
f 60 	34 	59
f 37 	54 	31
f 7 	36 	50
f 11 	7 	50
f 40 	50 	36
f 57 	40 	36
f 49 	12 	2
f 2 	51 	49
f 62 	45 	44
f 62 	44 	63
f 52 	3 	9
f 52 	9 	48
f 46 	61 	39
f 64 	39 	61
f 56 	43 	42
f 56 	42 	55
f 10 	59 	53
f 53 	47 	10
f 58 	41 	40
f 58 	40 	57
f 54 	60 	11
f 54 	11 	50
f 16 	25 	28
f 16 	28 	13
f 26 	25 	15
f 16 	15 	25
f 15 	27 	26
# 132 faces

 #end of obj_0

